<?xml version="1.0" encoding="utf-8"?>
<!-- Generator: Adobe Illustrator 19.2.1, SVG Export Plug-In . SVG Version: 6.00 Build 0)  -->
<svg version="1.1" id="Layer_1" xmlns="http://www.w3.org/2000/svg" xmlns:xlink="http://www.w3.org/1999/xlink" x="0px" y="0px"
	 viewBox="0 0 600 559.6" enable-background="new 0 0 600 559.6" xml:space="preserve">
<g>
	<path fill="#F6B221" d="M322.6,375.2c2.1-4.7,4.5-9.3,6.9-13.9l2.5,1.3c-2.4,4.5-4.7,9.1-6.8,13.7L322.6,375.2z M337.3,347.9
		c2.7-4.3,5.6-8.7,8.6-12.9l2.3,1.6c-3,4.2-5.8,8.5-8.5,12.8L337.3,347.9z M355.1,322.7c3.1-4,6.5-8,9.9-11.9l2.1,1.8
		c-3.4,3.9-6.7,7.9-9.8,11.8L355.1,322.7z M375.6,299.4c3.5-3.6,7.1-7.3,10.9-10.9l1.9,2c-3.8,3.6-7.4,7.3-10.9,10.9L375.6,299.4z
		 M397.3,276.6c3.7-3.3,7.6-6.7,11.6-10.2l1.8,2.1c-4,3.5-7.9,6.9-11.6,10.2L397.3,276.6z M420.7,256.4c3.7-3.1,2.3-2.2,6.6-5.7
		l1.7,2.2c-4.3,3.5-2.9,2.6-6.6,5.6L420.7,256.4z M491.2,203.4c4.1-3,8.2-6.1,12.3-9.2l1.7,2.2c-4.1,3.1-8.3,6.2-12.4,9.3
		L491.2,203.4z M516,185.5c4.3-3,8.6-5.9,12.6-8.8l1.6,2.3c-4.1,2.9-8.3,5.8-12.7,8.8L516,185.5z M541.8,169.6
		c4.6-2.5,9.1-5,13.5-7.5l1.4,2.4c-4.4,2.5-8.9,5-13.5,7.5L541.8,169.6z"/>
</g>
<g>
	<path fill="#F6B221" d="M416.1,372l-2.7-0.5c0.9-5,2-10.1,3.1-15.1l2.7,0.6C418.1,362,417.1,367,416.1,372z M422.7,342l-2.7-0.7
		c1.2-5,2.6-10,3.9-15l2.7,0.7C425.3,332,423.9,337,422.7,342z M430.9,312.3l-2.7-0.8c1.5-4.9,3.1-9.8,4.7-14.7l2.6,0.9
		C434,302.6,432.4,307.5,430.9,312.3z M440.8,283.2l-2.6-1c1.8-4.8,3.6-9.7,5.5-14.4l2.6,1C444.4,273.5,442.5,278.4,440.8,283.2z
		 M452.1,254.6l-2.6-1.1c2-4.7,4.1-9.5,6.3-14.1l2.5,1.2C456.2,245.1,454.1,249.9,452.1,254.6z M464.9,226.6l-2.5-1.2
		c2.3-4.6,4-8,6.4-12.6l2.5,1.3C469,218.6,467.2,222,464.9,226.6z M499.7,164.7l-2.3-1.5c2.8-4.4,1.7-2.3,4.6-6.5l2.3,1.6
		C501.4,162.5,502.5,160.4,499.7,164.7z M512.3,147.5l-2.3-1.6c3-4.2,6-8.4,8.9-12.6l2.3,1.6C518.3,139.1,515.4,143.3,512.3,147.5z
		 M530.2,122.4l-2.3-1.6l1.5-2.1c2.5-3.5,5-7,7.4-10.5l2.3,1.6c-2.5,3.5-4.9,7-7.4,10.5L530.2,122.4z M548.1,97.2l-2.3-1.6
		c3-4.2,6-8.4,9-12.5l2.2,1.6C554.1,88.9,551.1,93,548.1,97.2z M566.3,72.4l-2.2-1.7c3.2-4.2,6.3-8.3,9.4-12.3l2.2,1.7
		C572.5,64.1,569.4,68.2,566.3,72.4z M585.1,48.1l-2.2-1.8c3.3-4.1,6.6-8.1,9.9-11.9l2.1,1.8C591.7,40,588.4,44,585.1,48.1z"/>
</g>
<path fill="none" stroke="#0380B1" stroke-width="10.4407" stroke-linecap="round" stroke-miterlimit="10" d="M591.2,121.4
	c-57.8,36.2-119.2,66.5-182.7,90.9c-80.3,33.5-208.4,34.8-291.2,34"/>
<g>
	<path fill="#F6B221" d="M567.1,156.1c4.4-2.6,8.8-5.2,13.2-7.9l1.4,2.4c-4.4,2.7-8.9,5.4-13.2,7.9L567.1,156.1z M337.2,250.6
		l-0.6-2.7c5-1,10-2.2,15-3.3l0.6,2.7C347.3,248.4,342.3,249.5,337.2,250.6z M364.2,243.8l-0.9-2.6c4.8-1.6,9.7-3.3,14.5-5.1
		l0.9,2.6C373.9,240.5,369,242.2,364.2,243.8z M306.8,256.1l-0.4-2.8c5-0.8,10.1-1.6,15.2-2.5l0.5,2.7
		C317,254.4,311.9,255.3,306.8,256.1z M276.2,259.9l-0.3-2.8c5-0.5,10.2-1.1,15.3-1.7l0.3,2.8C286.4,258.9,281.2,259.4,276.2,259.9z
		 M245.3,262l-0.1-2.8c5.1-0.2,10.2-0.5,15.4-0.8l0.2,2.8C255.6,261.6,250.4,261.9,245.3,262z M214.4,262.3l0.1-2.8
		c5.1,0.1,10.3,0.2,15.4,0.1l0,2.8C224.7,262.5,219.5,262.4,214.4,262.3z M183.5,260.6l0.2-2.8c5.1,0.4,10.2,0.8,15.3,1.1l-0.2,2.8
		C193.8,261.4,188.6,261,183.5,260.6z"/>
</g>
<path fill="none" stroke="#40B4E5" stroke-width="10.4407" stroke-linecap="round" stroke-miterlimit="10" d="M553.9,14.4
	c-16.6,29-27.9,60.9-42.4,91.1c-25.6,53.4-64,99.4-107.2,139.8c-54.6,52.9-151.4,73.6-209.9,82.4"/>
<g>
	<path fill="#F6B221" d="M312.1,286.2l-1-2.6c4.3-1.7,8.7-3.5,13-5.4l1.2-0.5l1.1,2.5l-1.2,0.5C320.9,282.6,316.5,284.5,312.1,286.2
		z M339.2,271.1c4.6-2.3,9.1-4.7,13.6-7.2l1.4,2.4c-4.5,2.5-9.1,5-13.7,7.3L339.2,271.1z M282.8,296l-0.8-2.7
		c4.9-1.4,9.8-2.9,14.7-4.6l0.9,2.6C292.7,293.1,287.7,294.6,282.8,296z M366,256.1c4.3-2.7,8.6-5.6,12.8-8.5l1.6,2.3
		c-4.2,2.9-8.5,5.8-12.9,8.6L366,256.1z M252.7,303.3l-0.5-2.7c5-1,10.1-2.1,15-3.2l0.6,2.7C262.8,301.2,257.7,302.3,252.7,303.3z
		 M391.1,238.5c2.4-1.9,4.8-3.8,7.2-5.7c1.6-1.3,3.1-2.6,4.7-4l1.8,2.1c-1.6,1.4-3.1,2.7-4.7,4c-2.4,1.9-4.8,3.9-7.2,5.8
		L391.1,238.5z M412.3,220.8c3.6-3.5,1.7-1.6,5.2-5.4l2,1.9c-3.6,3.8-1.7,2-5.3,5.5L412.3,220.8z M441.8,188.2
		c3.2-3.8-0.1-0.1,3.1-4.2l2.2,1.7c-3.2,4.1,0.1,0.4-3.2,4.3L441.8,188.2z M454,171.6c2.9-4.1,5.8-8.4,8.7-12.7l2.3,1.5
		c-2.9,4.3-5.8,8.6-8.7,12.8L454,171.6z M470.9,145.9c2.6-4.3,5.3-8.7,7.8-13.2l2.4,1.4c-2.6,4.5-5.3,9-7.9,13.3L470.9,145.9z
		 M486.2,119.3c2.4-4.4,4.8-9,7.1-13.6l2.5,1.3c-2.4,4.7-4.8,9.3-7.2,13.7L486.2,119.3z M500.2,91.9l1.4-3c1.7-3.6,3.5-7.3,5.2-11
		l2.5,1.2c-1.7,3.7-3.4,7.3-5.2,11l-1.4,3L500.2,91.9z M513.3,63.9l1-2.3c1.8-3.9,3.6-7.8,5.4-11.7l2.5,1.2
		c-1.8,3.9-3.6,7.8-5.4,11.7l-1,2.3L513.3,63.9z M526.2,35.9c2.4-5,4.6-9.6,6.8-13.9l2.5,1.3c-2.2,4.3-4.4,8.8-6.8,13.8L526.2,35.9z
		"/>
</g>
<path fill="none" stroke="#0380B1" stroke-width="10.4407" stroke-linecap="round" stroke-miterlimit="10" d="M589.7,85.5
	c-54.3,62.6-118.8,114.6-165.2,151.7C374,277.6,300.3,365.4,276.4,425.5"/>
<rect x="71.1" y="308.7" transform="matrix(-0.9858 0.1678 -0.1678 -0.9858 282.864 658.5232)" fill="#60CBF5" width="85.1" height="64.9"/>
<rect x="154.9" y="292.7" transform="matrix(-0.9858 0.1678 -0.1678 -0.9858 403.6637 626.3789)" fill="#40B4E5" width="41" height="75.1"/>
<rect x="128.7" y="316.1" transform="matrix(-0.9858 0.1678 -0.1678 -0.9858 326.4206 646.0046)" fill="#B8DEF4" width="14.5" height="41.3"/>
<rect x="114.6" y="318.8" transform="matrix(-0.9858 0.1678 -0.1678 -0.9858 289.7946 654.4621)" fill="#B8DEF4" width="5.3" height="41.3"/>
<path fill="#40B4E5" stroke="#40B4E5" stroke-width="2.7842" stroke-miterlimit="10" d="M209.8,362.8l1.5-0.2c1-0.2,1.7-1.2,1.5-2.2
	L201,290.8c-0.2-1-1.2-1.7-2.2-1.5l-1.5,0.2c-1,0.2-1.7,1.2-1.5,2.2l11.9,69.6C207.8,362.3,208.8,363,209.8,362.8z"/>
<path fill="#40B4E5" stroke="#40B4E5" stroke-width="2.7842" stroke-miterlimit="10" d="M221.9,354.9l1.5-0.2c1-0.2,1.7-1.2,1.5-2.2
	l-9.9-58.2c-0.2-1-1.2-1.7-2.2-1.5l-1.5,0.2c-1,0.2-1.7,1.2-1.5,2.2l9.9,58.2C219.9,354.4,220.9,355.1,221.9,354.9z"/>
<path fill="#40B4E5" stroke="#40B4E5" stroke-width="2.7842" stroke-miterlimit="10" d="M234.6,347.7l1.5-0.2c1-0.2,1.7-1.2,1.5-2.2
	l-8.2-48.2c-0.2-1-1.2-1.7-2.2-1.5l-1.5,0.2c-1,0.2-1.7,1.2-1.5,2.2l8.2,48.2C232.6,347.2,233.6,347.9,234.6,347.7z"/>
<path fill="#40B4E5" stroke="#40B4E5" stroke-width="2.7842" stroke-miterlimit="10" d="M246.1,337.4l1.5-0.2c1-0.2,1.7-1.2,1.5-2.2
	l-5.3-31.4c-0.2-1-1.2-1.7-2.2-1.5l-1.5,0.2c-1,0.2-1.7,1.2-1.5,2.2l5.3,31.4C244.1,336.9,245.1,337.6,246.1,337.4z"/>
<path fill="none" stroke="#40B4E5" stroke-width="10.4407" stroke-linecap="round" stroke-miterlimit="10" d="M587.3,24.6
	c-30.9,36.6-56.5,76.1-89,117.6c-52.7,67.2-99.3,196.6-108.7,288.6"/>
<g>
	<line fill="none" stroke="#B8DEF4" stroke-width="2.3443" stroke-miterlimit="10" x1="83.3" y1="364" x2="111.7" y2="359.3"/>
	<line fill="none" stroke="#B8DEF4" stroke-width="2.3443" stroke-miterlimit="10" x1="82.3" y1="358.1" x2="110.7" y2="353.3"/>
	<line fill="none" stroke="#B8DEF4" stroke-width="2.3443" stroke-miterlimit="10" x1="81.3" y1="352.1" x2="109.7" y2="347.4"/>
	<line fill="none" stroke="#B8DEF4" stroke-width="2.3443" stroke-miterlimit="10" x1="80.3" y1="346.2" x2="108.7" y2="341.4"/>
	<line fill="none" stroke="#B8DEF4" stroke-width="2.3443" stroke-miterlimit="10" x1="79.3" y1="340.2" x2="107.7" y2="335.5"/>
	<line fill="none" stroke="#B8DEF4" stroke-width="2.3443" stroke-miterlimit="10" x1="78.3" y1="334.3" x2="106.7" y2="329.5"/>
	<line fill="none" stroke="#B8DEF4" stroke-width="2.3443" stroke-miterlimit="10" x1="77.3" y1="328.3" x2="105.7" y2="323.6"/>
</g>
<polygon fill="#60CBF5" points="79.9,268.1 79.2,271.9 4.7,261.4 5.4,257.7 "/>
<path fill="#0380B1" stroke="#0380B1" stroke-width="1.5284" stroke-miterlimit="10" d="M154,262.7l2.2,0c1,0,1.9-0.8,1.9-1.9
	l0.1-30.5c0-1-0.8-1.9-1.9-1.9l-2.2,0c-1,0-1.9,0.8-1.9,1.9l-0.1,30.5C152.1,261.8,153,262.7,154,262.7z"/>
<path fill="#0380B1" stroke="#0380B1" stroke-width="1.4045" stroke-miterlimit="10" d="M167,260.1l2.2,0c1,0,1.9-0.8,1.9-1.9
	l0-25.2c0-1-0.8-1.9-1.9-1.9l-2.2,0c-1,0-1.9,0.8-1.9,1.9l0,25.2C165.1,259.2,165.9,260.1,167,260.1z"/>
<path fill="#0380B1" stroke="#0380B1" stroke-width="1.5887" stroke-miterlimit="10" d="M140.5,264.1l2.2,0c1,0,1.9-0.8,1.9-1.9
	l0.1-33.3c0-1-0.8-1.9-1.9-1.9l-2.2,0c-1,0-1.9,0.8-1.9,1.9l-0.1,33.3C138.6,263.2,139.5,264.1,140.5,264.1z"/>
<path fill="#0380B1" stroke="#0380B1" stroke-width="1.5887" stroke-miterlimit="10" d="M127.1,264l2.2,0c1,0,1.9-0.8,1.9-1.9
	l0.1-33.3c0-1-0.8-1.9-1.9-1.9l-2.2,0c-1,0-1.9,0.8-1.9,1.9l-0.1,33.3C125.2,263.2,126,264,127.1,264z"/>
<g>
	<path fill="#0380B1" stroke="#0380B1" stroke-width="1.6037" stroke-miterlimit="10" d="M311.8,401.2l1.2-1.8
		c0.6-0.9,0.3-2-0.5-2.6l-28.3-18.8c-0.9-0.6-2-0.3-2.6,0.5l-1.2,1.8c-0.6,0.9-0.3,2,0.5,2.6l28.3,18.8
		C310,402.3,311.2,402.1,311.8,401.2z"/>
	<path fill="#0380B1" stroke="#0380B1" stroke-width="1.4738" stroke-miterlimit="10" d="M316.5,388.8l1.2-1.8
		c0.6-0.9,0.3-2-0.5-2.6l-23.4-15.6c-0.9-0.6-2-0.3-2.6,0.5l-1.2,1.8c-0.6,0.9-0.3,2,0.5,2.6l23.4,15.6
		C314.7,389.9,315.9,389.7,316.5,388.8z"/>
	<path fill="#0380B1" stroke="#0380B1" stroke-width="1.667" stroke-miterlimit="10" d="M305.6,413.3l1.2-1.8c0.6-0.9,0.3-2-0.5-2.6
		l-30.8-20.5c-0.9-0.6-2-0.3-2.6,0.5l-1.2,1.8c-0.6,0.9-0.3,2,0.5,2.6l30.8,20.5C303.8,414.4,305,414.2,305.6,413.3z"/>
	<path fill="#0380B1" stroke="#0380B1" stroke-width="1.667" stroke-miterlimit="10" d="M294.9,424.6c1.2,0.8,2.8,0.5,3.6-0.7
		l0.4-0.6c0.8-1.2,0.5-2.8-0.7-3.6l-29.6-19.7c-1.2-0.8-2.8-0.5-3.6,0.7l-0.4,0.6c-0.8,1.2-0.5,2.8,0.7,3.6L294.9,424.6"/>
</g>
<polygon fill="#0380B1" points="90.5,261.7 119.2,261.4 119.3,227.6 90.6,227.8 "/>
<polygon fill="#60CBF5" points="5.2,258.6 90.7,258.1 90.7,231.9 5.3,232.7 "/>
<polygon fill="#60CBF5" points="66.5,253.7 90.7,254 90.7,227.9 66.5,227.8 "/>
<polyline fill="#0380B1" points="119.1,261.5 90.2,261.6 90.7,280.7 "/>
<path fill="#0380B1" d="M92.3,257.9l0.4,17.6c0,4.2-3.5,7.6-7.7,7.6h0c-4.2,0-7.6-3.5-7.6-7.7l-0.4-17.6"/>
<polygon fill="#B8DEF4" points="53.3,251.7 53.3,249.4 12.7,250.3 12.7,252.6 "/>
<path fill="#0380B1" d="M97.9,249.4l-37.2-0.1c-1.1,0-1.7-1.3-1-2.2l6-5.3c0.2-0.3,0.6-0.4,1-0.4l31.2-0.1c0.7,0,1.3,0.6,1.3,1.3
	l0,5.4C99.2,248.8,98.6,249.4,97.9,249.4z"/>
<polygon fill="#60CBF5" points="406.1,472.1 409.7,473.3 387,546.2 383.4,544.9 "/>
<polygon fill="#40B4E5" points="401.4,460.3 405.9,431.6 372,425.9 367.5,454.7 "/>
<polygon fill="#60CBF5" points="384.3,545.2 397.9,459.6 371.7,455.2 358.4,540.9 "/>
<polygon fill="#60CBF5" points="389.4,483.1 393.8,458.9 367.6,454.6 363.5,478.8 "/>
<polyline fill="#40B4E5" points="405.9,431.6 401.3,460.6 420.4,463.3 "/>
<path fill="#40B4E5" d="M397.9,457.9l17.7,2.5c4.2,0.7,7,4.8,6.3,9l0,0c-0.7,4.2-4.8,7-9,6.3l-17.7-2.5"/>
<polygon fill="#B8DEF4" points="385.3,495.9 383,495.6 377.2,536.3 379.5,536.7 "/>
<path fill="#40B4E5" d="M390.3,450.9l-6.2,37.2c-0.2,1.1-1.6,1.5-2.4,0.6l-4.3-6.9c-0.2-0.3-0.3-0.7-0.3-1.1l5.1-31.3
	c0.1-0.7,0.8-1.2,1.5-1.1l5.4,0.9C389.9,449.5,390.4,450.2,390.3,450.9z"/>
<path fill="#40B4E5" stroke="#40B4E5" stroke-width="1.5284" stroke-miterlimit="10" d="M412.8,395.7l0.4-2.2c0.2-1-0.5-2-1.5-2.2
	l-30.1-5.2c-1-0.2-2,0.5-2.2,1.5l-0.4,2.2c-0.2,1,0.5,2,1.5,2.2l30.1,5.2C411.7,397.4,412.6,396.8,412.8,395.7z"/>
<path fill="#40B4E5" stroke="#40B4E5" stroke-width="1.4045" stroke-miterlimit="10" d="M412.4,382.5l0.4-2.2c0.2-1-0.5-2-1.5-2.2
	l-24.8-4.3c-1-0.2-2,0.5-2.2,1.5l-0.4,2.2c-0.2,1,0.5,2,1.5,2.2l24.8,4.3C411.2,384.2,412.2,383.5,412.4,382.5z"/>
<path fill="#40B4E5" stroke="#40B4E5" stroke-width="1.5887" stroke-miterlimit="10" d="M411.9,409.2l0.4-2.2c0.2-1-0.5-2-1.5-2.2
	l-32.8-5.7c-1-0.2-2,0.5-2.2,1.5l-0.4,2.2c-0.2,1,0.5,2,1.5,2.2l32.8,5.7C410.7,410.9,411.7,410.3,411.9,409.2z"/>
<path fill="#40B4E5" stroke="#40B4E5" stroke-width="1.5887" stroke-miterlimit="10" d="M409.6,422.5l0.4-2.2c0.2-1-0.5-2-1.5-2.2
	l-32.8-5.7c-1-0.2-2,0.5-2.2,1.5l-0.4,2.2c-0.2,1,0.5,2,1.5,2.2l32.8,5.7C408.4,424.2,409.4,423.5,409.6,422.5z"/>
<g>
	<polygon fill="#60CBF5" points="221.4,550.7 264.9,460.7 246.9,432.6 207.1,515.2 	"/>
	<polygon fill="#B8DEF4" points="246.6,483.3 254.6,466 243.3,448.9 235.3,466.2 	"/>
	<polygon fill="#B8DEF4" points="240.1,496.3 242.8,490.4 231.3,473.9 228.6,479.8 	"/>
	<path fill="none" stroke="#B8DEF4" stroke-width="1.978" stroke-miterlimit="10" d="M220.5,537.8l15.6-31.6 M218.4,531l15.6-31.6
		 M215.8,526.1l15.6-31.6 M213.1,520.9l15.6-31.6 M211.4,515.6l15.6-31.6"/>
	<polygon fill="#4ABEE2" points="289.9,487.8 292.9,490.2 245,561.3 241.9,559.7 	"/>
	<polygon fill="#0094C1" points="262.7,461.3 276.2,433.2 257.5,410.9 244.6,437.3 	"/>
	<polygon fill="#4ABEE2" points="242.7,560.1 286.6,471.8 263.6,460.2 221,550.5 	"/>
	<polygon fill="#4ABEE2" points="269.1,498.3 282.5,471.3 263.2,461.4 250.1,488.6 	"/>
	<polyline fill="#0380B1" points="302.5,446.9 288.9,475.2 305.9,483.2 	"/>
	<path fill="#0380B1" d="M286.8,471.1l15.7,7.5c3.7,1.9,4.8,7.4,2.5,12.1l0,0c-2.3,4.7-7.2,7-10.9,5l-15.7-7.5"/>
	<polygon fill="#B8DEF4" points="261.7,508.2 259.7,507.2 239,550 241,550.9 	"/>
	<path fill="#0380B1" d="M282.3,461.1l-20,41.8c-0.6,1.3-2.1,1.3-2.5,0.1l-1.4-9.1c-0.1-0.4-0.1-0.9,0.1-1.3l16.7-35.2
		c0.4-0.8,1.2-1.2,1.9-0.9l4.8,2.4C282.4,459.3,282.6,460.3,282.3,461.1z"/>
	<polygon fill="#0380B1" points="289.1,474.9 302.6,446.8 276.2,433.2 262.7,461.3 	"/>
	<polygon fill="#00799E" points="276.2,433.2 257.5,410.9 290,426.6 302.6,446.8 	"/>
</g>
</svg>
