<?xml version="1.0" encoding="UTF-8"?>
<svg viewBox="0 0 121.875 94.625" xmlns="http://www.w3.org/2000/svg">
 <g transform="translate(-57.906 -67.938)" stroke-linecap="square">
  <path d="m64.41 69.931h108.85a4.5139 4.5139 0 0 1 4.5139 4.5139v81.597a4.5139 4.5139 0 0 1 -4.5139 4.5139h-108.85a4.5139 4.5139 0 0 1 -4.5139 -4.5139v-81.597a4.5139 4.5139 0 0 1 4.5139 -4.5139" fill="#fff" stroke="#0a0a0a" stroke-width="4"/>
  <path d="m73.958 75.66h89.41c2.3083 0 4.1667 1.8583 4.1667 4.1667l2.8e-4 52.653h-21.742v9.414h-8.694l4e-5 12.586h-36.871l-4e-5 -12.586h-8.694v-9.414h-21.742l-3.4e-4 -52.653c-1.1e-5 -2.3083 1.8583-4.1667 4.1667-4.1667z" fill="#dcdcdc" stroke="#0a0a0a" stroke-width="2.5"/>
  <g transform="translate(-.36789)" fill="#666" stroke="#191919">
   <path d="m80.556 75.747h3.9062v22.786h-3.9062z"/>
   <path d="m153.6 75.747h3.9062v22.786h-3.9062z"/>
   <path d="m132.73 75.747h3.9062v22.786h-3.9062z"/>
   <path d="m122.3 75.747h3.9062v22.786h-3.9062z"/>
   <path d="m111.86 75.747h3.9062v22.786h-3.9062z"/>
   <path d="m101.43 75.747h3.9062v22.786h-3.9062z"/>
   <path d="m90.991 75.747h3.9062v22.786h-3.9062z"/>
   <path d="m143.17 75.747h3.9062v22.786h-3.9062z"/>
  </g>
  <path d="m69.542 137.03h17.101v13.889h-17.101z" fill="#1dfe0a" stroke="#0a0a0a" stroke-width="2"/>
  <path d="m150.68 137.03h17.101v13.889h-17.101z" fill="#ffd10a" stroke="#0a0a0a" stroke-width="2"/>
 </g>
</svg>
