<?xml version="1.0" encoding="UTF-8"?>
<svg xmlns="http://www.w3.org/2000/svg" width="234" height="166" version="1.1">
	<path d="m 186,0 -45.9,46 16.9,16.9 4.2,-4.3 -4.2,-7.1 24,-24 -5.7,-5.7 16.3,-16.2 z M 44,4 c -3,0 -6,3 -6,6 l 0,62 c 0,3 3,6 6,6 l 56.5,0 5.5,-8 0,-20 -4,0 0,20 -4,0 0,-20 -4,0 0,20 -4,0 0,-20 -4,0 0,20 -4,0 0,-20 -4,0 0,20 -4,0 0,-20 -4,0 0,20 -4,0 0,-20 -4,0 0,20 -14,0 -2,-2 0,-14 2,-1 0,-11 -2,-1 0,-11 2,-2 15,0 0.5,-8 7.5,0 1,-8 24,0 1,8 7.5,0 0.5,8 15,0 2,2 0,11 -2,1 0,7 3,-4.5 7,-5.5 0,-29 c 0,-3 -3,-6 -6,-6 z m 150.4,4.4 -14.2,14.1 2.8,2.8 14.1,-14.2 z m 5.7,5.7 -14.2,14.1 2.8,2.8 14.1,-14.2 z m 5.7,5.7 -14.2,14.1 2.8,2.8 14.1,-14.2 z m 5.6,5.6 -14.2,14.1 2.8,2.8 14.1,-14.2 z m -27.6,4.9 -21.9,21.9 4.3,7.1 -19.8,19.8 8.5,8.5 19.8,-19.8 7.1,4.2 21.9,-21.9 z m 33.3,0.7 -14.2,14.1 2.8,2.8 14.1,-14.2 z m 5.7,5.7 -14.2,14.2 2.8,2.8 14.1,-14.2 z m 5.7,5.7 -16.3,16.3 -5.8,-5.8 -24,24.1 -7.1,-4.3 -4.3,4.3 17,17 46,-46 z m -94.8,1.4 -6.4,5 -15.8,23.8 17.9,17.9 -4.3,4.2 -17.1,-17 -4.5,6.8 15.9,15.9 -4.2,4.3 -15.1,-15 -4.5,6.8 13.9,13.9 -4.3,4.3 -13,-13 -4.5,6.8 11.9,11.9 -4.3,4.3 -11.1,-11.1 -4.5,6.8 9.9,9.9 C 47.3,177.3 -10,112 32,64 l 0,-15 c -78,67 13,159.2 71.9,95.2 l 9.9,9.9 6.8,-4.5 -11,-11.1 4.2,-4.2 11.9,11.9 6.8,-4.5 -13.1,-13 4.3,-4.3 13.9,13.9 6.8,-4.5 -15.1,-15 4.3,-4.3 15.9,15.9 6.8,-4.5 -17.1,-17.1 4.3,-4.3 17.9,17.9 23.8,-15.8 4.9,-6.4 L 168.9,79 152.6,95.3 138.4,81.1 154.7,64.8 z"/>
</svg>
